<svg width="62" height="50" viewBox="0 0 62 50" fill="none" xmlns="http://www.w3.org/2000/svg">
<g clip-path="url(#clip0_6_114)">
<path d="M30.897 50.036C22.766 50.036 14.635 50.036 6.505 50.036C6.478 50.036 6.447 50.037 6.415 50.037C2.872 50.037 0 47.165 0 43.622C0 43.59 0 43.559 0.001 43.527V43.532C0.0723333 34.0967 0.0723333 24.6554 0.001 15.208C0.001 15.197 0.001 15.185 0.001 15.172C0.001 11.619 2.881 8.73903 6.434 8.73903C22.767 8.73903 39.082 8.73903 55.415 8.73903C55.497 8.73503 55.593 8.73303 55.69 8.73303C59.085 8.73303 61.837 11.485 61.837 14.88C61.837 14.983 61.834 15.085 61.829 15.186L61.83 15.172V43.532C61.837 43.641 61.841 43.768 61.841 43.897C61.841 47.292 59.089 50.044 55.694 50.044C55.59 50.044 55.486 50.041 55.383 50.036L55.398 50.037L30.897 50.036ZM30.897 43.871C30.939 43.871 30.99 43.872 31.04 43.872C39.014 43.872 45.479 37.407 45.479 29.433C45.479 21.459 39.014 14.994 31.04 14.994C23.078 14.994 16.622 21.438 16.601 29.394V29.396C16.65 37.281 22.988 43.669 30.849 43.799H30.861L30.897 43.871ZM12.384 19.049C12.345 17.928 11.436 17.031 10.313 17.012H10.311C9.176 17.012 8.256 17.932 8.256 19.067C8.256 20.202 9.176 21.122 10.311 21.122C11.448 21.102 12.364 20.186 12.384 19.051V19.049Z" fill="#CCBA8D"/>
<path d="M42.28 6.16506H19.532C19.889 4.73506 20.211 3.35906 20.568 1.98306C20.646 0.853064 21.582 -0.0339355 22.725 -0.0339355C22.859 -0.0339355 22.991 -0.0219355 23.118 0.00206446L23.105 6.4455e-05H38.938C39.008 -0.00793555 39.089 -0.0129355 39.17 -0.0129355C40.219 -0.0129355 41.085 0.766065 41.224 1.77606L41.225 1.78706C41.565 3.07406 41.886 4.36006 42.208 5.64706C42.244 5.80806 42.244 5.96906 42.279 6.16506H42.28Z" fill="#CCBA8D"/>
<path d="M29.402 43.878C21.443 43.857 15 37.401 15 29.439C15 21.465 21.465 15 29.439 15C37.413 15 43.878 21.465 43.878 29.439C43.878 29.489 43.878 29.539 43.877 29.59V29.582C43.756 37.491 37.326 43.859 29.404 43.878H29.402ZM29.402 39.75C35.097 39.75 39.713 35.134 39.713 29.439C39.713 23.744 35.097 19.128 29.402 19.128C23.72 19.128 19.111 23.724 19.091 29.401V29.403C19.091 29.424 19.091 29.45 19.091 29.475C19.091 35.15 23.691 39.75 29.366 39.75C29.404 39.75 29.442 39.75 29.479 39.749H29.473L29.402 39.75Z" fill="#CCBA8D"/>
<path d="M12.384 19.049C12.365 20.174 11.468 21.083 10.35 21.122H10.346C9.211 21.122 8.291 20.202 8.291 19.067C8.291 17.932 9.211 17.012 10.346 17.012C11.455 17.05 12.345 17.94 12.383 19.046V19.05L12.384 19.049Z" fill="#BDAE82"/>
<path d="M31.129 21.1401C35.507 21.2841 39.019 24.8011 39.152 29.1691V29.1821C39.154 29.2201 39.156 29.2651 39.156 29.3111C39.156 30.4431 38.272 31.3681 37.156 31.4341H37.15C37.145 31.4341 37.138 31.4341 37.132 31.4341C35.987 31.4341 35.059 30.5061 35.059 29.3611C35.02 27.1091 33.215 25.2921 30.972 25.2331H30.966C30.949 25.2331 30.93 25.2341 30.91 25.2341C29.785 25.2341 28.873 24.3221 28.873 23.1971C28.873 23.1651 28.874 23.1341 28.875 23.1021V23.1061C28.929 22.0051 29.836 21.1321 30.946 21.1321C31.01 21.1321 31.073 21.1351 31.135 21.1401L31.127 21.1391L31.129 21.1401Z" fill="#CCBA8D"/>
</g>
<defs>
<clipPath id="clip0_6_114">
<rect width="62" height="50" fill="white"/>
</clipPath>
</defs>
</svg>
